<?xml version="1.0" encoding="UTF-8"?>
<!-- Created with Inkscape (http://www.inkscape.org/) -->
<svg width="324.86" height="205.82" version="1.1" viewBox="0 0 324.86 205.82" xmlns="http://www.w3.org/2000/svg">
 <defs>
  <clipPath id="clipPath2">
   <path transform="translate(-156.4 -629.56)" d="m0 720h1280v-720h-1280z"/>
  </clipPath>
  <clipPath id="clipPath4">
   <path transform="translate(-127.4 -617.81)" d="m0 720h1280v-720h-1280z"/>
  </clipPath>
  <clipPath id="clipPath6">
   <path transform="translate(-150.65 -648.49)" d="m0 720h1280v-720h-1280z"/>
  </clipPath>
  <clipPath id="clipPath8">
   <path transform="translate(-384.55 -644.15)" d="m0 720h1280v-720h-1280z"/>
  </clipPath>
  <clipPath id="clipPath10">
   <path transform="translate(-1178 -633.08)" d="m0 720h1280v-720h-1280z"/>
  </clipPath>
  <clipPath id="clipPath12">
   <path transform="translate(-1157.8 -633.68)" d="m0 720h1280v-720h-1280z"/>
  </clipPath>
  <clipPath id="clipPath14">
   <path transform="translate(-672.47 -651.88)" d="m0 720h1280v-720h-1280z"/>
  </clipPath>
  <clipPath id="clipPath16">
   <path transform="translate(-931.56 -611.47)" d="m0 720h1280v-720h-1280z"/>
  </clipPath>
  <clipPath id="clipPath18">
   <path transform="translate(-939.99 -461.14)" d="m0 720h1280v-720h-1280z"/>
  </clipPath>
  <clipPath id="clipPath20">
   <path transform="translate(-652.18 -447.51)" d="m0 720h1280v-720h-1280z"/>
  </clipPath>
  <clipPath id="clipPath22">
   <path transform="translate(-637.53 -240.35)" d="m0 720h1280v-720h-1280z"/>
  </clipPath>
  <clipPath id="clipPath24">
   <path transform="translate(-654.04 -263.2)" d="m0 720h1280v-720h-1280z"/>
  </clipPath>
  <clipPath id="clipPath26">
   <path transform="translate(-354.2 -449.97)" d="m0 720h1280v-720h-1280z"/>
  </clipPath>
  <clipPath id="clipPath28">
   <path transform="translate(-362.77 -487.44)" d="m0 720h1280v-720h-1280z"/>
  </clipPath>
  <clipPath id="clipPath30">
   <path transform="translate(-427.25 -447.93)" d="m0 720h1280v-720h-1280z"/>
  </clipPath>
  <clipPath id="clipPath32">
   <path transform="translate(-1172.3 -452.51)" d="m0 720h1280v-720h-1280z"/>
  </clipPath>
  <clipPath id="clipPath34">
   <path transform="translate(-1155.5 -437.74)" d="m0 720h1280v-720h-1280z"/>
  </clipPath>
  <clipPath id="clipPath36">
   <path transform="translate(-128.34 -483.89)" d="m0 720h1280v-720h-1280z"/>
  </clipPath>
  <clipPath id="clipPath38">
   <path transform="translate(-909.02 -249.29)" d="m0 720h1280v-720h-1280z"/>
  </clipPath>
  <clipPath id="clipPath40">
   <path transform="translate(-418.79 -286.93)" d="m0 720h1280v-720h-1280z"/>
  </clipPath>
  <clipPath id="clipPath42">
   <path transform="translate(-1145.3 -256.7)" d="m0 720h1280v-720h-1280z"/>
  </clipPath>
  <clipPath id="clipPath44">
   <path transform="translate(-124.84 -235.76)" d="m0 720h1280v-720h-1280z"/>
  </clipPath>
  <clipPath id="clipPath46">
   <path transform="translate(-393.43 -67.832)" d="m0 720h1280v-720h-1280z"/>
  </clipPath>
  <clipPath id="clipPath48">
   <path transform="translate(-140.84 -67.586)" d="m0 720h1280v-720h-1280z"/>
  </clipPath>
  <clipPath id="clipPath50">
   <path transform="translate(-140.84 -82.271)" d="m0 720h1280v-720h-1280z"/>
  </clipPath>
  <clipPath id="clipPath52">
   <path transform="translate(-140.84 -74.923)" d="m0 720h1280v-720h-1280z"/>
  </clipPath>
  <clipPath id="clipPath54">
   <path transform="translate(-101.68 -82.271)" d="m0 720h1280v-720h-1280z"/>
  </clipPath>
  <clipPath id="clipPath56">
   <path transform="translate(-101.68 -74.923)" d="m0 720h1280v-720h-1280z"/>
  </clipPath>
  <clipPath id="clipPath58">
   <path transform="translate(-622.31 -89.898)" d="m0 720h1280v-720h-1280z"/>
  </clipPath>
  <clipPath id="clipPath60">
   <path transform="translate(-882.94 -94.503)" d="m0 720h1280v-720h-1280z"/>
  </clipPath>
  <clipPath id="clipPath62">
   <path transform="translate(-1122.4 -96.805)" d="m0 720h1280v-720h-1280z"/>
  </clipPath>
  <clipPath id="clipPath64">
   <path transform="translate(-1123.2 -80.258)" d="m0 720h1280v-720h-1280z"/>
  </clipPath>
  <clipPath id="clipPath66">
   <path transform="translate(-1127.4 -65.268)" d="m0 720h1280v-720h-1280z"/>
  </clipPath>
  <clipPath id="clipPath36-4">
   <path transform="translate(-128.34 -483.89)" d="m0 720h1280v-720h-1280z"/>
  </clipPath>
  <clipPath id="clipPath2-1">
   <path transform="translate(-156.4 -629.56)" d="m0 720h1280v-720h-1280z"/>
  </clipPath>
  <clipPath id="clipPath4-1">
   <path transform="translate(-127.4 -617.81)" d="m0 720h1280v-720h-1280z"/>
  </clipPath>
  <clipPath id="clipPath6-5">
   <path transform="translate(-150.65 -648.49)" d="m0 720h1280v-720h-1280z"/>
  </clipPath>
  <clipPath id="clipPath20-2">
   <path transform="translate(-652.18 -447.51)" d="m0 720h1280v-720h-1280z"/>
  </clipPath>
 </defs>
 <g transform="translate(-658.13 -368.25)" display="none" fill="#666">
  <path transform="matrix(1.3333 0 0 -1.3333 208.53 120.58)" d="m0 0c0.011 4.374 0.068 8.749-0.124 13.121-0.096 2.183-0.209 4.368-0.838 6.487-0.653 2.199-1.744 4.116-3.443 5.688-2.377 2.199-5.286 3.063-8.401 3.362-3.335 0.321-6.688 0.328-10.035 0.345-5.713 0.029-11.428 0.073-17.141-0.087-2.283-0.065-4.569-0.104-6.829-0.484-3.243-0.545-6.028-1.927-8.089-4.564-1.802-2.306-2.492-5.014-2.775-7.86-0.274-2.747-0.283-5.508-0.314-8.261-0.08-6.916-0.103-13.833 0.103-20.747 0.06-2.003 0.193-4.006 0.674-5.975 0.678-2.777 2.054-5.107 4.279-6.899 2.091-1.685 4.577-2.44 7.187-2.767 2.699-0.337 5.425-0.348 8.139-0.362 7.073-0.037 14.148-0.119 21.219 0.1 1.812 0.056 3.621 0.153 5.406 0.489 2.817 0.532 5.324 1.657 7.299 3.82 1.705 1.868 2.613 4.1 3.089 6.539 0.569 2.918 0.489 5.885 0.574 8.832 0.089 3.072 0.02 6.149 0.02 9.223m-27.728-35.529c-5.212 0-8.763-0.093-12.306 0.028-3.178 0.108-6.382 0.104-9.5 0.904-4.015 1.031-7.479 2.953-10.163 6.186-2.632 3.169-3.946 6.858-4.396 10.895-0.338 3.036-0.459 6.085-0.461 9.138-4e-3 6.011-0.038 12.022 0.016 18.031 0.027 2.991 0.105 5.989 0.566 8.954 0.85 5.475 3.362 9.973 7.968 13.156 2.775 1.917 5.913 2.959 9.257 3.312 7.229 0.762 14.486 0.407 21.732 0.479 3.093 0.031 6.187 0.014 9.277-0.129 3.29-0.153 6.559-0.407 9.69-1.59 3.433-1.295 6.257-3.371 8.435-6.318 2.341-3.168 3.496-6.789 3.788-10.663 0.697-9.228 0.34-18.473 0.32-27.711-6e-3 -2.826-0.099-5.673-0.655-8.47-0.815-4.103-2.52-7.724-5.607-10.642-2.504-2.367-5.459-3.832-8.779-4.626-2.018-0.483-4.068-0.622-6.137-0.749-4.903-0.301-9.807-0.127-13.045-0.185" clip-path="url(#clipPath2)"/>
  <path transform="matrix(1.3333 0 0 -1.3333 169.87 136.25)" d="m0 0c6.467 7e-3 11.756 5.277 11.724 11.746-0.034 6.536-5.152 11.681-11.733 11.733-6.466 0.052-11.801-5.317-11.732-11.804 0.069-6.511 5.237-11.615 11.741-11.675m-0.097-6.539c-9.917-0.064-18.294 8.147-18.223 18.43 0.069 10.059 8.237 18.167 18.402 18.156 10.064-0.011 18.176-8.204 18.216-18.277 0.039-10.103-8.236-18.457-18.395-18.309" clip-path="url(#clipPath4)"/>
  <path transform="matrix(1.3333 0 0 -1.3333 200.87 95.349)" d="m0 0c0-2.397-1.921-4.333-4.297-4.33-2.376 2e-3 -4.377 1.974-4.366 4.302 0.011 2.437 1.936 4.374 4.339 4.366 2.476-7e-3 4.325-1.862 4.324-4.338" clip-path="url(#clipPath6)"/>
  <path transform="matrix(1.3333 0 0 -1.3333 512.73 101.13)" d="m0 0v5.872c0 2.861 1.908 3.527 3.247 3.527h8.237v12.581l-11.344 0.049c-12.591 0-15.453-9.385-15.453-15.392v-6.637h-7.282v-14.683h7.344v-36.713h14.684v36.713h10.899l0.527 5.767 0.811 8.916z" clip-path="url(#clipPath8)"/>
  <path transform="matrix(1.3333 0 0 -1.3333 1570.6 115.9)" d="m0 0h-1.341v1.194c3e-3 1.704 0.025 3.407-0.016 5.112-6e-3 0.277-0.294 0.781-0.466 0.785-1.556 0.061-3.114 0.038-4.76 0.038v-7.113h-7.138c0-0.533-0.014-0.896 1e-3 -1.252 0.053-1.289 0.114-2.578 0.172-3.865 1.258-0.044 2.517-0.102 3.777-0.13 1.051-0.018 2.102-1e-3 3.268-1e-3v-7.018h5.146v7.035h7.037v5.215z" clip-path="url(#clipPath10)"/>
  <path transform="matrix(1.3333 0 0 -1.3333 1543.7 115.1)" d="m0 0c-4.447-0.058-8.892-0.025-13.336-0.025-1.269 0-2.542 0.023-3.81-0.027-0.242-7e-3 -0.674-0.297-0.674-0.464-0.045-2.56-0.033-5.123-0.033-7.823h10.889c-0.144-0.53-0.234-0.911-0.358-1.282-1.672-4.951-6.786-7.405-12.267-6.505-6.807 1.116-11.044 7.428-9.835 14.248 0.172 0.964 0.474 1.877 0.864 2.74 2.248 4.95 7.818 7.955 13.328 6.751 1.973-0.43 3.658-1.387 5.113-2.655 1.98 1.996 3.903 3.936 5.953 6.004-0.133 0.104-0.323 0.24-0.499 0.387-4.805 4.057-10.324 5.548-16.507 4.536-8.888-1.453-15.279-8.451-16.711-16.629-0.609-3.494-0.322-7.204 1.073-10.789 3.382-8.685 12.117-13.976 21.446-12.951 4.554 0.503 8.623 2.147 11.804 5.538 4.689 4.992 5.893 11.033 5.147 17.647-0.123 1.104-0.57 1.313-1.587 1.299" clip-path="url(#clipPath12)"/>
  <path transform="matrix(1.3333 0 0 -1.3333 896.63 90.825)" d="m0 0c-2.699-1.181-5.601-1.974-8.65-2.333 3.113 1.835 5.497 4.739 6.626 8.207-2.91-1.703-6.139-2.937-9.571-3.603-2.743 2.882-6.659 4.684-10.991 4.684-8.318 0-15.062-6.642-15.062-14.83 0-1.164 0.134-2.289 0.385-3.378-12.517 0.618-23.618 6.524-31.047 15.494-1.294-2.19-2.042-4.738-2.042-7.455 0-5.142 2.666-9.682 6.703-12.341-2.466 0.076-4.792 0.744-6.824 1.853v-0.184c0-1.899 0.371-3.707 1.031-5.375 1.84-4.65 5.982-8.163 11.055-9.172-1.267-0.333-2.594-0.519-3.973-0.519-0.967 0-1.91 0.094-2.833 0.27 1.921-5.89 7.483-10.18 14.072-10.298-5.157-3.98-11.648-6.351-18.71-6.351-1.217 0-2.414 0.071-3.597 0.208 6.673-4.207 14.594-6.662 23.094-6.662 23.55 0 38.021 16.315 41.839 33.24 0.675 2.991 1.024 6.003 1.024 8.951 0 0.639-0.012 1.283-0.041 1.918 2.941 2.09 5.496 4.701 7.512 7.676" clip-path="url(#clipPath14)"/>
  <path transform="matrix(1.3333 0 0 -1.3333 1242.1 144.71)" d="m0 0 0.015 0.013c-0.024 0.019-0.048 0.024-0.072 0.044-7e-3 0-0.01 2e-3 -0.014 7e-3v-5e-3c-0.89 0.564-1.78 0.644-2.341 0.85-0.013 4e-3 -0.022 5e-3 -0.034 0.01-3.805 1.206-7.098 3.808-9.554 6.972-1.366 1.765-2.519 3.682-3.283 5.727-1e-3 9e-3 -1e-3 0.015-4e-3 0.024-0.298 0.888-0.316 1.859 0.128 2.444 2e-3 4e-3 0.011 0.012 0.014 0.018 0.689 0.975 1.95 1.606 3.295 2.098 4e-3 2e-3 0.01 6e-3 0.019 6e-3 1.486 0.514 3.112 1.109 4.455 2.286 4e-3 6e-3 0.014 0.012 0.02 0.018 0.205 0.193 0.454 0.447 0.641 0.823 0.046 0.092 0.083 0.195 0.113 0.309 0.093 0.35 0.103 0.783-0.085 1.168v8e-3c-0.388 0.787-1.059 1.194-1.563 1.491h-5e-3c-0.84 0.483-1.818 0.516-2.668 0.242h-3e-3c-7e-3 -2e-3 -0.013-4e-3 -0.018-4e-3 -0.917-0.277-1.666-0.608-2.362-0.693-0.015-2e-3 -0.031-7e-3 -0.046-0.012-0.989-0.172-1.946-0.214-2.69 0.058-0.01 0.109-0.014 0.324-0.043 0.59h7e-3c-0.055 1.625 0.082 3.296 0.11 5.029v0.011c0.074 2.635 0.182 5.343-0.205 8.072-4e-3 0.012-7e-3 0.026-7e-3 0.039-0.849 4.602-3.804 8.567-7.555 11.205-2.722 1.913-5.959 2.98-9.244 3.281h-8e-3c-1.117 0.104-2.218 0.143-3.315 0.13-4.444-0.029-9.041-1.196-12.643-4.016-2.701-2.106-4.824-4.901-6.159-8.02-2e-3 -6e-3 -3e-3 -0.015-3e-3 -0.021-1.275-3.214-1.156-6.636-0.986-9.807v-2e-3c0.107-2.227 0.353-4.387 0.146-6.434-0.018-0.08-0.018-0.1-0.031-0.147-1-0.177-2.091-0.116-3.173 0.092h-0.017c-0.742 0.125-1.532 0.427-2.426 0.674-0.014 6e-3 -0.03 8e-3 -0.047 0.012-0.869 0.199-1.719-0.051-2.373-0.532-7e-3 -4e-3 -0.021-0.011-0.029-0.016-0.014-0.013-0.027-0.021-0.04-0.031-0.53-0.349-1.261-0.933-1.299-1.949-3e-3 -0.06 5e-3 -0.122 0.014-0.181 3e-3 -5e-3 0-0.013 4e-3 -0.018 0.114-0.598 0.486-1.037 0.816-1.321 0.33-0.286 0.641-0.472 0.834-0.619 0.014-9e-3 0.029-0.023 0.046-0.035 1.62-1.079 3.411-1.552 4.968-2.154h6e-3c1.08-0.472 2.016-1.206 2.229-2.133 0.271-1.171-0.229-2.514-0.879-3.816v-5e-3c-1.754-3.455-4.358-6.46-7.559-8.658-1.679-1.146-3.573-2.007-5.549-2.532-0.026-8e-3 -0.053-0.018-0.08-0.03-0.406-0.153-1.366-0.25-1.973-1.16-0.043-0.065-0.078-0.133-0.102-0.209-0.204-0.582 0.029-1.21 0.316-1.558 0.274-0.325 0.58-0.517 0.843-0.659 0.015-6e-3 0.028-0.014 0.043-0.022 1.664-0.952 3.479-1.364 5.138-1.786 8e-3 -4e-3 0.015-6e-3 0.023-6e-3 1.193-0.268 2.298-0.413 3.197-0.795 0.043-0.074 0.135-0.374 0.344-0.876 0.293-0.91 0.429-1.984 0.77-3.112 0.094-0.309 0.371-0.564 0.692-0.631 0.757-0.158 1.169 0.099 1.236 0.103 0.032 5e-3 0.062 5e-3 0.091 0.013 2.778 0.48 5.553 0.906 8.098 0.274h4e-3c2.671-0.696 4.994-2.535 7.606-4.112 7e-3 -2e-3 7e-3 -8e-3 0.014-0.012v4e-3c1.735-1.09 3.742-2.156 6.06-2.233v-5e-3h0.021c1.75-0.099 3.468 0.012 5.147 0.126h0.03c1.437 0.138 2.829 0.613 4.047 1.386 0.021 9e-3 0.034 0.02 0.053 0.029 2.75 1.558 5.192 3.436 7.869 4.613 5e-3 4e-3 8e-3 6e-3 0.014 6e-3 0.869 0.31 1.953 0.293 3.16 0.375h0.036c2.215 0.068 4.44-0.049 6.641-0.341 0.075-9e-3 0.152-9e-3 0.228 0 0.289 0.033 0.605 0.229 0.758 0.421 0.156 0.196 0.199 0.352 0.232 0.468 0.064 0.226 0.123 0.33 0.015 0.147 0.033 0.056 0.064 0.116 0.082 0.18 0.403 1.326 0.623 2.523 1.277 3.269 0.296 0.285 0.797 0.426 1.37 0.419 0.039 0 0.084 0 0.125 3e-3 1.915 0.226 3.645 0.909 5.286 1.49 0.017 9e-3 0.038 0.017 0.054 0.022 0.611 0.261 1.518 0.564 2.14 1.428 3e-3 7e-3 8e-3 7e-3 0.013 0.013l-5e-3 5e-3c0.523 0.72 0.277 1.713-0.461 2.163" clip-path="url(#clipPath16)"/>
  <path transform="matrix(1.3333 0 0 -1.3333 1253.3 345.15)" d="m0 0c-4.535-25.554-29.874-47.189-37.496-52.132-7.627-4.933-14.578 1.988-17.1 7.216-2.886 5.967-11.541 38.318-13.803 41.001-2.266 2.684-9.065-2.683-9.065-2.683l-3.294 4.329s13.804 16.481 24.306 18.55c11.139 2.175 11.122-17.109 13.805-27.817 2.588-10.364 4.329-16.281 6.592-16.281 2.267 0 6.593 5.769 11.33 14.629 4.747 8.866-0.203 16.695-9.479 11.127 3.712 22.248 38.74 27.6 34.204 2.061" clip-path="url(#clipPath18)"/>
  <path transform="matrix(1.3333 0 0 -1.3333 869.57 363.32)" d="m0 0-19.83-10.714-5e-3 16.495v5.014l8.943-4.867zm23.722 14.525s-0.715 5.28-2.914 7.602c-2.793 3.045-5.923 3.065-7.353 3.242-10.281 0.77-25.689 0.77-25.689 0.77h-0.034s-15.417 0-25.688-0.774c-1.435-0.173-4.56-0.193-7.357-3.24-2.197-2.322-2.915-7.602-2.915-7.602s-0.736-6.192-0.736-12.39v-5.804c0-6.201 0.736-12.395 0.736-12.395s0.718-5.277 2.915-7.598c2.797-3.05 6.469-2.953 8.098-3.27 5.875-0.586 24.963-0.771 24.963-0.771s15.426 0.029 25.707 0.798c1.43 0.18 4.56 0.193 7.353 3.245 2.199 2.322 2.914 7.598 2.914 7.598s0.738 6.192 0.738 12.393v5.804c0 6.198-0.738 12.392-0.738 12.392" clip-path="url(#clipPath20)"/>
  <path transform="matrix(1.3333 0 0 -1.3333 850.05 639.53)" d="m0 0c-6.157 0-11.888 1.829-16.674 4.974l-11.645-3.702 3.787 11.166c-3.627 4.957-5.77 11.05-5.77 17.628 0 0.986 0.052 1.956 0.144 2.916 1.484 15.217 14.441 27.155 30.159 27.155 15.911 0 28.991-12.237 30.202-27.72 0.06-0.774 0.101-1.558 0.101-2.348 0-16.582-13.596-30.069-30.304-30.069m36.022 30.975c-0.489 19.33-16.42 34.856-36.021 34.856-19.376 0-35.173-15.17-36.005-34.19-0.023-0.525-0.04-1.048-0.04-1.578 0-6.754 1.889-13.072 5.171-18.464l-6.504-19.192 19.956 6.342c5.166-2.836 11.104-4.45 17.422-4.45 19.909 0 36.043 16.012 36.043 35.764 0 0.306-0.014 0.606-0.022 0.912" clip-path="url(#clipPath22)"/>
  <path transform="matrix(1.3333 0 0 -1.3333 872.06 609.06)" d="m0 0c-0.884 0.439-5.23 2.562-6.041 2.85-0.809 0.292-1.399 0.439-1.988-0.437-0.588-0.879-2.282-2.852-2.799-3.434-0.514-0.586-1.029-0.662-1.912-0.223-0.883 0.436-3.731 1.364-7.105 4.351-2.627 2.324-4.402 5.192-4.914 6.071-0.517 0.876-0.054 1.349 0.386 1.787 0.4 0.392 0.884 1.024 1.326 1.534 0.131 0.149 0.229 0.286 0.32 0.421 0.218 0.325 0.356 0.629 0.565 1.042 0.295 0.585 0.146 1.097-0.074 1.537-0.22 0.438-1.99 4.754-2.723 6.509-0.738 1.757-1.472 1.461-1.989 1.461-0.516 0-1.103 0.072-1.693 0.072-0.591 0-1.547-0.22-2.357-1.098-0.809-0.877-3.093-2.996-3.093-7.309 0-1.018 0.182-2.028 0.457-2.986 0.89-3.096 2.814-5.635 3.153-6.082 0.438-0.581 6.111-9.723 15.089-13.235 8.986-3.509 8.986-2.339 10.607-2.191 1.618 0.145 5.225 2.119 5.964 4.169 0.733 2.045 0.733 3.803 0.513 4.17-0.223 0.363-0.81 0.582-1.692 1.021" clip-path="url(#clipPath24)"/>
  <path transform="matrix(1.3333 0 0 -1.3333 472.27 360.04)" d="m0 0v-35.958h17.134v48.948h-17.134z" clip-path="url(#clipPath26)"/>
  <path transform="matrix(1.3333 0 0 -1.3333 483.69 310.08)" d="m0 0c-4.731 0-8.568-3.835-8.568-8.566s3.837-8.566 8.568-8.566 8.566 3.835 8.566 8.566-3.835 8.566-8.566 8.566" clip-path="url(#clipPath28)"/>
  <path transform="matrix(1.3333 0 0 -1.3333 569.67 362.75)" d="m0 0c-1.16 9.226-5.397 15.029-17.871 15.029-7.398 0-12.367-2.748-14.398-6.605h-0.211v6.605h-13.646v-48.948h14.264v24.26c0 6.4 1.208 12.593 9.122 12.593 7.798 0 8.426-7.315 8.426-13.005v-23.848h14.687v26.898h2e-3c0 2.509-0.104 4.859-0.375 7.021" clip-path="url(#clipPath30)"/>
  <path transform="matrix(1.3333 0 0 -1.3333 1563.1 356.65)" d="m0 0c-0.181 0.13-0.375 0.287-0.584 0.42-5.267 3.359-10.538 6.712-15.799 10.08-0.401 0.258-0.699 0.264-1.103 4e-3 -5.239-3.355-10.49-6.693-15.734-10.039-0.856-0.546-0.856-0.563 0.023-1.124 5.223-3.332 10.454-6.653 15.667-10.002 0.483-0.31 0.821-0.222 1.243 0.05 2.165 1.394 4.34 2.773 6.512 4.157 3.074 1.959 6.15 3.916 9.222 5.88 0.207 0.132 0.473 0.216 0.553 0.574m17.437 10.919c-0.065-0.29-0.333-0.372-0.54-0.503-3.05-1.951-6.106-3.895-9.16-5.84-2.193-1.398-4.387-2.795-6.579-4.197-0.719-0.46-0.72-0.478-0.015-0.927 5.096-3.249 10.195-6.494 15.293-9.741 0.193-0.124 0.376-0.265 0.579-0.373 0.512-0.276 0.544-0.51 0.015-0.836-1.301-0.803-2.583-1.641-3.873-2.463-4.022-2.562-8.052-5.112-12.058-7.699-0.585-0.378-1.003-0.359-1.58 0.012-5.277 3.393-10.576 6.752-15.858 10.136-0.42 0.269-0.729 0.301-1.167 0.02-5.217-3.344-10.455-6.655-15.662-10.014-0.745-0.481-1.278-0.506-2.045-9e-3 -5.009 3.244-10.054 6.43-15.087 9.636-0.173 0.109-0.345 0.219-0.514 0.333-0.688 0.459-0.693 0.481 0.035 0.949 1.501 0.966 3.008 1.922 4.514 2.881 3.764 2.398 7.521 4.807 11.298 7.183 0.636 0.4 0.475 0.58-0.037 0.905-5.169 3.277-10.328 6.568-15.488 9.859-1.042 0.665-1.043 0.679-0.019 1.333 5.225 3.333 10.455 6.656 15.671 10.002 0.483 0.309 0.836 0.292 1.309-0.011 5.239-3.358 10.499-6.683 15.726-10.057 0.673-0.435 1.13-0.387 1.775 0.028 5.231 3.37 10.489 6.698 15.728 10.055 0.45 0.288 0.79 0.29 1.243-1e-3 5.303-3.4 10.619-6.78 15.928-10.169 0.208-0.134 0.461-0.226 0.568-0.492" clip-path="url(#clipPath32)"/>
  <path transform="matrix(1.3333 0 0 -1.3333 1540.6 376.35)" d="m0 0c0.148-0.082 0.331-0.171 0.5-0.279 5.33-3.394 10.659-6.79 15.987-10.188 0.756-0.483 0.754-0.524 0.016-0.994-5.199-3.314-10.408-6.616-15.592-9.955-0.682-0.44-1.182-0.514-1.904-0.047-5.181 3.344-10.392 6.64-15.591 9.956-0.824 0.526-0.814 0.575-7e-3 1.089 5.269 3.349 10.534 6.702 15.802 10.052 0.233 0.148 0.447 0.344 0.789 0.366" clip-path="url(#clipPath34)"/>
  <path transform="matrix(1.3333 0 0 -1.3333 171.12 314.82)" d="m0 0c-20.701-2e-3 -31.143-14.367-31.143-26.344 0-2.215 0.267-4.351 0.81-6.324 1.228-4.489 3.887-8.116 8.11-9.79 1.005-0.393 1.897-0.015 2.186 1.058 0.201 0.741 0.677 2.604 0.891 3.389 0.287 1.057 0.18 1.425-0.626 2.348-1.057 1.201-1.874 2.623-2.368 4.357-0.327 1.155-0.514 2.443-0.514 3.911 0 10.659 8.246 20.202 21.459 20.202 11.701 0 18.134-6.921 18.134-16.161 0-2.721-0.279-5.347-0.805-7.786-1.822-8.453-6.603-14.637-13.006-14.637-4.564 0-7.979 3.646-6.886 8.121 0.627 2.547 1.529 5.187 2.302 7.672 0.852 2.732 1.549 5.275 1.549 7.294 0 3.45-1.916 6.328-5.876 6.328-4.664 0-8.41-4.663-8.41-10.911 0-1.178 0.125-2.24 0.295-3.155 0.41-2.181 1.098-3.525 1.098-3.525s-4.771-19.548-5.606-22.977c-1.662-6.823-0.252-15.184-0.13-16.026 0.069-0.502 0.737-0.621 1.038-0.244 0.43 0.54 5.98 7.176 7.868 13.8 0.534 1.881 3.063 11.591 3.063 11.591 1.514-2.796 5.942-5.253 10.647-5.253 11.41 0 19.831 8.201 22.561 20.182 0.626 2.729 0.952 5.652 0.952 8.721 0 12.51-10.95 24.159-27.593 24.159" clip-path="url(#clipPath36)"/>
  <path transform="matrix(1.3333 0 0 -1.3333 1212 627.61)" d="m0 0h-26.221c-2.459 0-4.457 2.019-4.457 4.419 0 2.436 1.998 4.416 4.457 4.416h26.221c2.45 0 4.431-1.984 4.431-4.416 0-2.399-1.981-4.419-4.431-4.419m-26.221 35.386h12.905c2.462 0 4.455-1.993 4.455-4.427 0-2.423-1.995-4.436-4.455-4.436h-12.905c-2.459 0-4.457 2.013-4.457 4.436 0 2.432 1.998 4.427 4.457 4.427m49.652-11.54-0.626 1.276-1.032 0.807c-1.352 1.057-8.199-0.067-10.04 1.6-1.309 1.2-1.512 3.361-1.903 6.276-0.736 5.673-1.204 5.964-2.088 7.877-3.23 6.823-11.975 11.951-17.981 12.662h-16.279c-12.8 0-23.266-10.45-23.266-23.2v-27.062c0-12.729 10.466-23.162 23.266-23.162h26.743c12.802 0 23.206 10.433 23.276 23.162l0.113 15.405 0.027 3.336z" clip-path="url(#clipPath38)"/>
  <path transform="matrix(1.3333 0 0 -1.3333 558.39 577.43)" d="m0 0c-1.005 0.847-4.878 0.812-8.72 0.794-3.927-0.023-7.823-0.045-8.722-0.398-0.832-0.328-2.713-4.853-5.15-9.515-2.76-5.276-6.17-10.344-8.326-10.311-2.793 0.043-2.148 8.711-1.982 15.068 0.109 4.217-0.576 5.535-1.192 5.948-1.49 0.999-5.549 1.982-5.549 1.982s-12.133 0.921-13.873-4.362c2.308-0.304 6.298 0.436 4.758-15.862-0.075-0.789-1.858-7.506-7.533 1.585-1.4 2.248-6.846 15.811-8.719 15.865-6.294 0.171-12.464 0.431-14.668-0.794-2.009-1.118 2.719-10.495 10.703-22.999 6.53-10.226 13.444-18.215 25.37-20.222 2.228-0.224 8.1-0.49 9.909 0.395 1.262 0.617-0.271 9.485 3.964 10.309 1.906 0.371 9.139-9.21 11.894-10.309 1.667-0.666 5.349-0.913 9.116-0.793 4.075 0.132 8.671-0.357 9.117 2.379 0.996 6.115-12.285 14.066-12.685 17.848-0.289 2.707 4.859 7.704 7.533 11.497 3.256 4.62 6.786 10.181 4.755 11.895" clip-path="url(#clipPath40)"/>
  <path transform="matrix(1.3333 0 0 -1.3333 1527.1 617.73)" d="m0 0c-10.528 0-19.062 8.534-19.062 19.062 0 4.151 1.331 7.99 3.583 11.12 0.107-4.185 3.525-7.546 7.735-7.546 4.276 0 7.744 3.468 7.744 7.744 0 3.218-1.964 5.976-4.758 7.145 1.521 0.391 3.115 0.599 4.758 0.599 10.527 0 19.062-8.534 19.062-19.062s-8.535-19.062-19.062-19.062m30.182 19.062c0 16.669-13.513 30.182-30.182 30.182-16.67 0-30.183-13.513-30.183-30.182 0-2.017 0.203-3.986 0.579-5.892h-1e-3s9e-3 -0.057 0.031-0.163c4e-3 -0.018 7e-3 -0.035 0.011-0.053 0.051-0.256 0.156-0.736 0.326-1.415 4e-3 -0.012 7e-3 -0.023 9e-3 -0.036 1.407-5.569 7.235-24.034 25.437-38.799 2.374-1.926 5.75-2.018 8.238-0.242 6.051 4.319 16.947 14.755 24.175 37.026 0.084 0.253 0.171 0.505 0.249 0.762 8e-3 0.025 0.017 0.05 0.025 0.075h-3e-3c0.835 2.767 1.289 5.698 1.289 8.737" clip-path="url(#clipPath42)"/>
  <path transform="matrix(1.3333 0 0 -1.3333 166.46 645.65)" d="m0 0c1.117 0 2.244-0.1 3.348 0.018 4.563 0.483 8.974 1.447 12.649 4.459 0.946 0.776 1.559 1.751 0.656 2.877-0.906 1.128-1.96 0.778-2.915-0.056-1.552-1.356-3.387-2.236-5.349-2.669-7.895-1.743-15.645-2.152-22.637 3.019-0.837 0.62-1.728 0.558-2.415-0.205-0.769-0.852-0.659-1.802 0.149-2.582 1.134-1.092 2.458-1.927 3.893-2.575 4.015-1.81 8.26-2.404 12.621-2.286m22.294 23.538c-0.032 3.818-3.2 6.971-7.002 6.968-3.752-2e-3 -6.884-3.211-6.895-7.064-0.011-3.84 3.144-6.957 6.991-6.907 3.901 0.05 6.939 3.131 6.906 7.003m-37.781-6.991c3.91 0.012 6.954 3.037 6.961 6.919 6e-3 3.841-3.147 7.052-6.91 7.037-3.788-0.015-6.965-3.193-6.983-6.986-0.019-3.855 3.091-6.982 6.932-6.97m15.058-25.345c-10.317 0.296-20.297 2.567-28.857 9.208-6.478 5.027-10.504 11.365-9.914 19.93 0.072 1.033-0.481 1.439-1.161 1.944-4.737 3.52-5.876 9.27-2.753 13.757 3.169 4.554 8.831 5.563 13.819 2.371 0.899-0.575 1.476-0.553 2.348 0.014 7.113 4.624 14.978 6.928 23.412 7.29 1.499 0.064 2.014 0.61 2.299 2.023 1.371 6.795 2.856 13.568 4.302 20.348 0.542 2.545 0.98 2.837 3.482 2.313 4.498-0.94 9.005-1.841 13.485-2.859 1.082-0.246 1.692-0.154 2.429 0.792 2.142 2.752 5.437 3.495 8.394 2.102 3.095-1.46 4.63-4.572 3.932-7.972-0.608-2.963-3.388-5.223-6.634-5.394-3.154-0.165-5.966 1.871-6.933 5.229-0.311 1.082-0.752 1.613-1.866 1.824-3.809 0.723-7.609 1.499-11.394 2.342-1.051 0.234-1.6 0.26-1.859-1.028-1.221-6.066-2.528-12.115-3.846-18.16-0.237-1.087 0.084-1.492 1.177-1.544 8.595-0.415 16.583-2.773 23.782-7.571 0.803-0.535 1.321-0.19 1.986 0.243 5.046 3.29 10.693 2.24 13.926-2.552 3.021-4.478 1.817-10.255-2.846-13.566-0.672-0.477-1.319-0.814-1.24-1.88 0.654-8.868-3.648-15.272-10.382-20.356-8.516-6.431-18.378-8.586-29.088-8.848" clip-path="url(#clipPath44)"/>
  <path transform="matrix(1.3333 0 0 -1.3333 524.58 869.56)" d="m0 0c-1.62-2.259-4.012-4.051-7.118-5.322-3.07-1.261-6.75-1.899-10.937-1.899-5.033 0-9.252 0.873-12.543 2.594-2.35 1.255-4.296 2.947-5.768 5.048-1.483 2.109-2.239 4.213-2.239 6.238 0 1.265 0.495 2.362 1.463 3.258 0.955 0.892 2.184 1.342 3.657 1.342 1.202 0 2.238-0.356 3.082-1.057 0.806-0.675 1.5-1.673 2.053-2.961 0.623-1.403 1.302-2.587 2.01-3.513 0.689-0.899 1.678-1.653 2.935-2.241 1.274-0.591 2.983-0.894 5.089-0.894 2.893 0 5.27 0.609 7.052 1.812 1.747 1.17 2.593 2.583 2.593 4.308 0 1.363-0.438 2.433-1.353 3.274-0.953 0.879-2.214 1.56-3.737 2.035-1.588 0.487-3.752 1.018-6.424 1.572-3.637 0.764-6.725 1.676-9.178 2.701-2.509 1.058-4.536 2.516-6.013 4.341-0.482 0.597-0.882 1.247-1.21 1.936-0.699 1.463-1.062 3.124-1.062 4.987 0 2.606 0.802 4.961 2.383 6.984 1.56 2.012 3.854 3.582 6.795 4.649 2.912 1.061 6.365 1.6 10.281 1.6 3.128 0 5.872-0.36 8.168-1.063 2.309-0.707 4.253-1.666 5.786-2.844 1.539-1.183 2.69-2.451 3.404-3.772 0.727-1.33 1.096-2.655 1.096-3.934 0-1.237-0.484-2.358-1.435-3.337-0.959-0.981-2.171-1.478-3.599-1.478-1.298 0-2.313 0.314-3.015 0.922-0.651 0.576-1.335 1.469-2.089 2.75-0.878 1.632-1.933 2.921-3.142 3.832-1.182 0.883-3.148 1.328-5.853 1.328-2.506 0-4.55-0.495-6.065-1.477-1.456-0.946-2.171-2.024-2.171-3.309 0-0.788 0.229-1.443 0.703-2.009 0.495-0.603 1.197-1.124 2.085-1.567 0.922-0.455 1.874-0.818 2.818-1.074 0.18-0.049 0.387-0.104 0.605-0.161 0.995-0.257 2.413-0.595 4.244-1.011 2.831-0.603 5.441-1.271 7.735-2.001 2.34-0.738 4.353-1.64 5.995-2.699 1.682-1.075 3.005-2.454 3.95-4.109 0.946-1.658 1.427-3.705 1.427-6.082-5e-3 -2.836-0.833-5.432-2.458-7.697m16.252 9.093c0.528 2.391 0.804 4.863 0.804 7.411 0 0.876-0.043 1.741-0.108 2.601-1.352 17.849-16.461 31.92-34.913 31.92-2.039 0-4.038-0.173-5.985-0.503-3.134 1.946-6.832 3.077-10.803 3.077-11.219 0-20.308-8.967-20.308-20.031 0-3.695 1.018-7.153 2.788-10.127-0.26-1.247-0.443-2.521-0.56-3.815-0.095-1.03-0.148-2.071-0.148-3.125 0-19.074 15.678-34.529 35.018-34.529 2.19 0 4.334 0.198 6.413 0.576 2.862-1.513 6.131-2.374 9.6-2.374 11.222 1e-3 20.311 8.965 20.311 20.027 0 3.194-0.76 6.21-2.109 8.892" clip-path="url(#clipPath46)"/>
  <path transform="matrix(1.3333 0 0 -1.3333 187.79 869.89)" d="m0 0c-6.759 0-12.233 5.474-12.233 12.231 0 4.767 2.727 8.885 6.7 10.905 1.664 0.845 3.539 1.333 5.533 1.333 3.303 0 6.294-1.315 8.495-3.44 2.303-2.226 3.741-5.339 3.741-8.798 0-6.757-5.476-12.231-12.236-12.231m-19.577 4.89c0 7.044-3.247 14.082-7.867 18.794-3.407 3.473-7.559 5.682-11.714 5.682 0 0 7.342 7.344 19.581 7.344 12.236 0 19.577-7.344 19.577-7.344-4.176 0-8.348-2.233-11.765-5.736-4.59-4.713-7.812-11.726-7.812-18.74m-19.581-4.89c-6.759 0-12.236 5.474-12.236 12.231 0 3.62 1.58 6.86 4.076 9.101 2.165 1.943 5.019 3.137 8.16 3.137 1.91 0 3.712-0.451 5.323-1.232 4.086-1.98 6.912-6.158 6.912-11.006 0-6.757-5.478-12.231-12.235-12.231m51.394 24.469c4.895 1.222 4.897 4.897 4.897 4.897h-12.234c-7.342 7.343-14.688 9.795-24.476 9.795-9.791 0-17.136-2.452-24.479-9.795h-12.235s4e-3 -3.675 4.897-4.897c-0.904-1.243-1.894-2.865-2.748-4.619-1.213-2.494-2.149-5.26-2.149-7.619 0-10.094 7.037-17.127 17.133-17.127 5.727 0 11.332 3.216 14.681 7.342l4.9-7.342 4.895 7.342c3.352-4.126 8.955-7.342 14.682-7.342 10.093 0 17.133 7.033 17.133 17.127 0 2.248-0.847 4.868-1.978 7.268-0.889 1.889-1.954 3.644-2.919 4.97" clip-path="url(#clipPath48)"/>
  <path transform="matrix(1.3333 0 0 -1.3333 187.79 850.31)" d="m0 0c-1.35 0-2.447-1.098-2.447-2.449 0-1.35 1.097-2.448 2.447-2.448 1.351 0 2.448 1.094 2.448 2.448 2e-3 1.351-1.097 2.449-2.448 2.449" clip-path="url(#clipPath50)"/>
  <path transform="matrix(1.3333 0 0 -1.3333 187.79 860.1)" d="m0 0c-2.701 0-4.896 2.192-4.896 4.895 0 2.704 2.195 4.9 4.896 4.9s4.899-2.196 4.899-4.9c0-2.703-2.198-4.895-4.899-4.895m0 12.243c-4.053 0-7.344-3.292-7.344-7.348 0-4.057 3.291-7.342 7.344-7.342 4.054 0 7.346 3.285 7.346 7.342 0 4.056-3.292 7.348-7.346 7.348" clip-path="url(#clipPath52)"/>
  <path transform="matrix(1.3333 0 0 -1.3333 135.58 850.31)" d="m0 0c-1.352 0-2.447-1.098-2.447-2.449 0-1.35 1.095-2.448 2.447-2.448 1.351 0 2.446 1.094 2.446 2.448 0 1.351-1.095 2.449-2.446 2.449" clip-path="url(#clipPath54)"/>
  <path transform="matrix(1.3333 0 0 -1.3333 135.58 860.1)" d="m0 0c-2.703 0-4.898 2.192-4.898 4.895 0 2.704 2.195 4.9 4.898 4.9 2.702 0 4.897-2.196 4.897-4.9 0-2.703-2.195-4.895-4.897-4.895m0 12.243c-4.057 0-7.345-3.292-7.345-7.348 0-4.057 3.288-7.342 7.345-7.342 4.056 0 7.344 3.285 7.344 7.342 0 4.056-3.288 7.348-7.344 7.348" clip-path="url(#clipPath56)"/>
  <path transform="matrix(1.3333 0 0 -1.3333 829.75 840.14)" d="m0 0h-13.032v10.51h13.032c2.89 0 5.261-2.366 5.261-5.253 0-2.886-2.371-5.257-5.261-5.257m18.369-15.617c0 5.7-3.78 10.583-8.889 12.36 3.703 2.297 6.219 6.44 6.219 11.103 0 7.253-5.847 13.102-13.031 13.102h-26.141v-52.255h26.141c8.589 0 15.701 7.029 15.701 15.69m13.031 2.59h28.733v1.335c0 10.805-7.775 19.538-19.549 19.538-11.85 0-19.627-8.732-19.627-19.538 0-10.883 7.777-19.615 19.627-19.615 11.774 0 17.402 6.736 19.177 15.69h-10.588c-0.964-4.589-3.704-7.847-8.589-7.847-4.963 0-8.815 4.59-9.184 10.437m17.773 5.255h-17.256c0.596 4.665 4.075 7.772 8.667 7.772 4.516 0 7.847-3.184 8.589-7.772m-20.364 26.129h23.476v-7.848h-23.476zm-41.841-26.129h13.032c2.89 0 7.851-1.254 7.851-6.807 0-2.888-2.295-6.291-5.183-6.291h-15.7z" clip-path="url(#clipPath58)"/>
  <path transform="matrix(1.3333 0 0 -1.3333 1177.3 834)" d="m0 0c0-3.182-1e-3 -6.363 0-9.545 1e-3 -0.691 0.323-1.018 1.016-1.02 0.944-4e-3 1.888-4e-3 2.833 0 0.687 2e-3 1.015 0.334 1.015 1.024 1e-3 6.363 0 12.727 0 19.09 0 0.704-0.333 1.038-1.035 1.04-0.902 3e-3 -1.806 1e-3 -2.709 1e-3 -0.815-1e-3 -1.12-0.302-1.12-1.107zm-16.892 0.017c0-3.171-1e-3 -6.343 0-9.515 0-0.756 0.31-1.074 1.058-1.074 4.034-1e-3 8.067-2e-3 12.102 0 0.742 1e-3 1.058 0.326 1.06 1.08 1e-3 0.883 0 1.765 0 2.648 0 0.85-0.28 1.133-1.118 1.134-2.617 0-5.234-1e-3 -7.852 0-0.44 1e-3 -0.387-0.058-0.387 0.398-1e-3 4.936 0 9.874-1e-3 14.81 0 0.771-0.318 1.091-1.079 1.092-0.893 1e-3 -1.787 0-2.679 0-0.799-1e-3 -1.104-0.301-1.104-1.089zm46.305-0.013c0-3.173-1e-3 -6.346 1e-3 -9.518 0-0.717 0.322-1.056 1.021-1.057 4.066-3e-3 8.131-4e-3 12.198 0 0.675 1e-3 0.997 0.335 0.999 1.008 3e-3 0.914 1e-3 1.828 1e-3 2.742-1e-3 0.829-0.279 1.11-1.103 1.11-2.648 1e-3 -5.298 3e-3 -7.946-4e-3 -0.229-1e-3 -0.321 0.038-0.316 0.298 0.017 0.913 0.012 1.827 2e-3 2.741-2e-3 0.204 0.057 0.263 0.26 0.26 0.863-0.01 1.725-4e-3 2.587-4e-3 1.838 0 3.676-2e-3 5.514 2e-3 0.68 1e-3 0.999 0.324 1.001 0.999 3e-3 0.965-2e-3 1.93 2e-3 2.895 2e-3 0.28-0.064 0.526-0.27 0.726-0.226 0.218-0.508 0.24-0.801 0.24-2.649-2e-3 -5.298 3e-3 -7.948-5e-3 -0.255-1e-3 -0.356 0.039-0.348 0.33 0.022 0.882 0.018 1.765 1e-3 2.648-5e-3 0.264 0.08 0.317 0.328 0.316 2.679-8e-3 5.359-6e-3 8.039-4e-3 0.676 0 0.995 0.322 0.997 1.001 3e-3 0.924 1e-3 1.848 1e-3 2.772-1e-3 0.788-0.306 1.09-1.104 1.09h-11.951c-0.876 0-1.165-0.287-1.165-1.16zm-16.653 1.827c0.13-0.173 0.205-0.269 0.277-0.367 2.826-3.818 5.656-7.633 8.473-11.458 0.296-0.402 0.633-0.595 1.137-0.58 0.903 0.026 1.807 6e-3 2.71 9e-3 0.695 2e-3 1.017 0.325 1.017 1.018v19.099c0 0.709-0.325 1.035-1.033 1.037-0.904 2e-3 -1.807 1e-3 -2.71 1e-3 -0.812-1e-3 -1.12-0.307-1.12-1.112v-11.28c-0.115 0.152-0.183 0.236-0.246 0.323-2.858 3.858-5.718 7.715-8.569 11.579-0.257 0.348-0.566 0.5-0.993 0.494-0.924-0.013-1.848-2e-3 -2.772-5e-3 -0.702-2e-3 -1.035-0.337-1.035-1.042-1e-3 -6.357 0-12.712 0-19.068 0-0.721 0.328-1.043 1.059-1.045 0.904-1e-3 1.808-1e-3 2.711 0 0.796 1e-3 1.093 0.298 1.093 1.096 1e-3 3.624 1e-3 7.249 1e-3 10.873zm0.298 35.276c7.002-0.01 13.764-1.26 20.241-3.953 5.852-2.433 11.045-5.845 15.373-10.508 3.854-4.152 6.631-8.916 8.033-14.435 0.817-3.221 1.073-6.488 0.796-9.802-0.425-5.057-2.165-9.647-4.907-13.882-2.21-3.414-4.901-6.427-7.808-9.252-3.932-3.82-8.225-7.209-12.648-10.435-4.991-3.641-10.125-7.064-15.485-10.14-1.403-0.805-2.807-1.613-4.342-2.154-0.573-0.202-1.155-0.36-1.77-0.353-0.9 0.013-1.425 0.517-1.489 1.419-0.051 0.727 0.117 1.428 0.222 2.138 0.257 1.712 0.664 3.404 0.702 5.147 0.01 0.504-0.029 1.003-0.108 1.502-0.12 0.757-0.501 1.333-1.14 1.745-1.011 0.651-2.134 0.999-3.309 1.168-9.055 1.31-17.291 4.544-24.384 10.426-4.172 3.46-7.49 7.604-9.763 12.55-1.38 3.004-2.267 6.15-2.615 9.437-0.562 5.327 0.248 10.448 2.406 15.35 1.856 4.215 4.516 7.867 7.818 11.061 4.122 3.986 8.899 6.96 14.189 9.132 3.252 1.336 6.614 2.305 10.068 2.943 3.277 0.604 6.585 0.914 9.92 0.896" clip-path="url(#clipPath60)"/>
  <path transform="matrix(1.3333 0 0 -1.3333 1496.5 830.93)" d="m0 0c3.535 1.358 7.379 2.041 11.104 2.609 0.247 0.038 1.221 0.156-4e-3 4e-3 0.19 0.024 0.38 0.049 0.571 0.073 0.441 0.054 0.884 0.104 1.326 0.151 1.044 0.11 2.09 0.199 3.138 0.267 2.272 0.149 4.551 0.201 6.827 0.158 2.49-0.047 4.976-0.209 7.452-0.481 0.345-0.038 0.69-0.078 1.033-0.12 0.174-0.021 1.069-0.144 0.353-0.044 0.567-0.08 1.135-0.165 1.7-0.257 1.463-0.237 2.92-0.513 4.368-0.828 7.098-1.541 13.868-3.984 20.283-7.248 2.014-1.024 4.538-0.528 5.726 1.501 1.091 1.866 0.52 4.697-1.502 5.726-18.498 9.412-40.331 12.949-60.623 7.76-1.337-0.341-2.687-0.705-3.977-1.201-2.108-0.81-3.564-2.815-2.922-5.147 0.553-2.017 3.026-3.738 5.147-2.923" clip-path="url(#clipPath62)"/>
  <path transform="matrix(1.3333 0 0 -1.3333 1497.7 852.99)" d="m0 0c3.025 1.162 6.314 1.755 9.502 2.24 0.183 0.029 0.366 0.051 0.549 0.078-1.082-0.164-0.506-0.065-0.265-0.038 0.392 0.045 0.783 0.094 1.176 0.136 0.94 0.101 1.883 0.182 2.827 0.243 1.926 0.125 3.857 0.169 5.786 0.135 2.165-0.038 4.327-0.177 6.48-0.413 0.275-0.03 0.551-0.064 0.827-0.096 0.11-0.013 0.815-0.106 0.144-0.014 0.57-0.078 1.138-0.167 1.705-0.259 1.248-0.204 2.49-0.443 3.725-0.713 6.05-1.323 11.789-3.394 17.252-6.17 2.014-1.024 4.538-0.529 5.726 1.501 1.09 1.865 0.52 4.698-1.502 5.725-16.088 8.176-35.033 11.259-52.681 6.763-1.168-0.298-2.349-0.614-3.476-1.048-2.108-0.809-3.563-2.815-2.922-5.147 0.553-2.017 3.026-3.737 5.147-2.923" clip-path="url(#clipPath64)"/>
  <path transform="matrix(1.3333 0 0 -1.3333 1503.2 872.98)" d="m0 0c2.395 0.919 4.992 1.385 7.515 1.775 0.859 0.134-0.288-0.027-1e-3 2e-3 0.341 0.035 0.682 0.083 1.024 0.119 0.677 0.072 1.354 0.13 2.031 0.176 1.566 0.107 3.135 0.147 4.702 0.12 1.698-0.029 3.392-0.133 5.08-0.315 0.413-0.044 0.827-0.091 1.24-0.147-0.649 0.087 0.391-0.065 0.577-0.095 1.021-0.163 2.039-0.355 3.05-0.573 4.802-1.04 9.324-2.66 13.639-4.848 2.015-1.022 4.538-0.53 5.726 1.501 1.09 1.864 0.521 4.7-1.502 5.725-13.013 6.6-28.29 9.102-42.561 5.458-0.923-0.235-1.855-0.486-2.746-0.827-2.108-0.809-3.563-2.816-2.922-5.148 0.554-2.018 3.026-3.736 5.148-2.923" clip-path="url(#clipPath66)"/>
 </g>
 <g transform="translate(-658.13 -368.25)">
  <g>
   <path transform="matrix(1.3333 0 0 -1.3333 830.05 465.37)" d="m0 0-19.83-10.714-5e-3 16.495v5.014l8.943-4.867zm23.722 14.525s-0.715 5.28-2.914 7.602c-2.793 3.045-5.923 3.065-7.353 3.242-10.281 0.77-25.689 0.77-25.689 0.77h-0.034s-15.417 0-25.688-0.774c-1.435-0.173-4.56-0.193-7.357-3.24-2.197-2.322-2.915-7.602-2.915-7.602s-0.736-6.192-0.736-12.39v-5.804c0-6.201 0.736-12.395 0.736-12.395s0.718-5.277 2.915-7.598c2.797-3.05 6.469-2.953 8.098-3.27 5.875-0.586 24.963-0.771 24.963-0.771s15.426 0.029 25.707 0.798c1.43 0.18 4.56 0.193 7.353 3.245 2.199 2.322 2.914 7.598 2.914 7.598s0.738 6.192 0.738 12.393v5.804c0 6.198-0.738 12.392-0.738 12.392" clip-path="url(#clipPath20-2)" fill="#666"/>
  </g>
  <g display="none" fill="#666">
   <path transform="matrix(1.3333 0 0 -1.3333 892.09 480.43)" d="m0 0c0.011 4.374 0.068 8.749-0.124 13.121-0.096 2.183-0.209 4.368-0.838 6.487-0.653 2.199-1.744 4.116-3.443 5.688-2.377 2.199-5.286 3.063-8.401 3.362-3.335 0.321-6.688 0.328-10.035 0.345-5.713 0.029-11.428 0.073-17.141-0.087-2.283-0.065-4.569-0.104-6.829-0.484-3.243-0.545-6.028-1.927-8.089-4.564-1.802-2.306-2.492-5.014-2.775-7.86-0.274-2.747-0.283-5.508-0.314-8.261-0.08-6.916-0.103-13.833 0.103-20.747 0.06-2.003 0.193-4.006 0.674-5.975 0.678-2.777 2.054-5.107 4.279-6.899 2.091-1.685 4.577-2.44 7.187-2.767 2.699-0.337 5.425-0.348 8.139-0.362 7.073-0.037 14.148-0.119 21.219 0.1 1.812 0.056 3.621 0.153 5.406 0.489 2.817 0.532 5.324 1.657 7.299 3.82 1.705 1.868 2.613 4.1 3.089 6.539 0.569 2.918 0.489 5.885 0.574 8.832 0.089 3.072 0.02 6.149 0.02 9.223m-27.728-35.529c-5.212 0-8.763-0.093-12.306 0.028-3.178 0.108-6.382 0.104-9.5 0.904-4.015 1.031-7.479 2.953-10.163 6.186-2.632 3.169-3.946 6.858-4.396 10.895-0.338 3.036-0.459 6.085-0.461 9.138-4e-3 6.011-0.038 12.022 0.016 18.031 0.027 2.991 0.105 5.989 0.566 8.954 0.85 5.475 3.362 9.973 7.968 13.156 2.775 1.917 5.913 2.959 9.257 3.312 7.229 0.762 14.486 0.407 21.732 0.479 3.093 0.031 6.187 0.014 9.277-0.129 3.29-0.153 6.559-0.407 9.69-1.59 3.433-1.295 6.257-3.371 8.435-6.318 2.341-3.168 3.496-6.789 3.788-10.663 0.697-9.228 0.34-18.473 0.32-27.711-6e-3 -2.826-0.099-5.673-0.655-8.47-0.815-4.103-2.52-7.724-5.607-10.642-2.504-2.367-5.459-3.832-8.779-4.626-2.018-0.483-4.068-0.622-6.137-0.749-4.903-0.301-9.807-0.127-13.045-0.185" clip-path="url(#clipPath2-1)" display="inline"/>
   <path transform="matrix(1.3333 0 0 -1.3333 853.43 496.1)" d="m0 0c6.467 7e-3 11.756 5.277 11.724 11.746-0.034 6.536-5.152 11.681-11.733 11.733-6.466 0.052-11.801-5.317-11.732-11.804 0.069-6.511 5.237-11.615 11.741-11.675m-0.097-6.539c-9.917-0.064-18.294 8.147-18.223 18.43 0.069 10.059 8.237 18.167 18.402 18.156 10.064-0.011 18.176-8.204 18.216-18.277 0.039-10.103-8.236-18.457-18.395-18.309" clip-path="url(#clipPath4-1)" display="inline"/>
   <path transform="matrix(1.3333 0 0 -1.3333 884.43 455.2)" d="m0 0c0-2.397-1.921-4.333-4.297-4.33-2.376 2e-3 -4.377 1.974-4.366 4.302 0.011 2.437 1.936 4.374 4.339 4.366 2.476-7e-3 4.325-1.862 4.324-4.338" clip-path="url(#clipPath6-5)" display="inline"/>
   <path transform="matrix(1.3333 0 0 -1.3333 855.52 431)" d="m0 0c-20.701-2e-3 -31.143-14.367-31.143-26.344 0-2.215 0.267-4.351 0.81-6.324 1.228-4.489 3.887-8.116 8.11-9.79 1.005-0.393 1.897-0.015 2.186 1.058 0.201 0.741 0.677 2.604 0.891 3.389 0.287 1.057 0.18 1.425-0.626 2.348-1.057 1.201-1.874 2.623-2.368 4.357-0.327 1.155-0.514 2.443-0.514 3.911 0 10.659 8.246 20.202 21.459 20.202 11.701 0 18.134-6.921 18.134-16.161 0-2.721-0.279-5.347-0.805-7.786-1.822-8.453-6.603-14.637-13.006-14.637-4.564 0-7.979 3.646-6.886 8.121 0.627 2.547 1.529 5.187 2.302 7.672 0.852 2.732 1.549 5.275 1.549 7.294 0 3.45-1.916 6.328-5.876 6.328-4.664 0-8.41-4.663-8.41-10.911 0-1.178 0.125-2.24 0.295-3.155 0.41-2.181 1.098-3.525 1.098-3.525s-4.771-19.548-5.606-22.977c-1.662-6.823-0.252-15.184-0.13-16.026 0.069-0.502 0.737-0.621 1.038-0.244 0.43 0.54 5.98 7.176 7.868 13.8 0.534 1.881 3.063 11.591 3.063 11.591 1.514-2.796 5.942-5.253 10.647-5.253 11.41 0 19.831 8.201 22.561 20.182 0.626 2.729 0.952 5.652 0.952 8.721 0 12.51-10.95 24.159-27.593 24.159" clip-path="url(#clipPath36-4)" display="inline"/>
  </g>
 </g>
</svg>
