<?xml version="1.0" encoding="UTF-8"?>
<svg width="959.36" height="1500" version="1.1" viewBox="0 0 959.36 1500" xmlns="http://www.w3.org/2000/svg">
 <path d="m424.19 762.86c-8.8711-8.8789-8.8711-23.27 0-32.141 8.8672-8.8672 23.27-8.8672 32.137 0l23.352 23.352 221.86-221.86h0.012c28.398-28.41 42.609-65.66 42.609-102.9 0-37.238-14.211-74.488-42.609-102.9h-0.012l-0.02-0.031c-28.398-28.391-65.641-42.598-102.87-42.598-37.27 0-74.52 14.199-102.92 42.558l0.039 0.039-0.019 0.031c-8.8711 8.8711-23.27 8.8711-32.141 0l-0.019-0.031-1.0118-1.0703c-28.25-27.668-65.059-41.527-101.87-41.527-37.223 0-74.473 14.207-102.87 42.598l-0.02 0.031-1.1601 1.0781c-11.371 11.602-20.41 24.672-27.121 38.613-7.1485 14.848-11.648 30.699-13.449 46.789-1.2891 11.609-11.129 20.211-22.551 20.199v0.039h-170.81c-12.551 0-22.73-10.18-22.73-22.73v-290.32c0-33.039 13.508-63.066 35.258-84.816 0.4414-0.45313 0.8907-0.86328 1.3633-1.2617 21.668-21.012 51.148-34 83.449-34h438.09c12.551 0 22.73 10.18 22.73 22.73s-10.18 22.73-22.73 22.73h-438.09c-20.062 0-38.32 7.9883-51.711 20.898l-0.9688 1.0312c-13.531 13.531-21.941 32.199-21.941 52.688v267.59h128.92c3.1484-14.141 7.9297-28.012 14.32-41.281 8.7969-18.281 20.727-35.461 35.758-50.781 0.3907-0.461 0.8008-0.9102 1.2305-1.3399l0.031-0.02c37.277-37.27 86.148-55.922 135-55.922 42.109 0 84.25 13.891 118.97 41.641 34.719-27.75 76.852-41.641 118.97-41.641 48.859 0 97.723 18.652 135 55.922l0.031 0.02v0.012c37.281 37.289 55.941 86.16 55.941 135.03 0 48.871-18.66 97.742-55.941 135.03v0.012l-237.93 237.93c-8.8711 8.8671-23.27 8.8671-32.141 0zm293.06-717.4c-12.551 0-22.73-10.18-22.73-22.73s10.18-22.73 22.73-22.73h122.04c32.969 0 62.969 13.52 84.77 35.301l0.043-0.0391c21.75 21.75 35.258 51.777 35.258 84.816v940.3c0 12.551-10.18 22.73-22.73 22.73s-22.719-10.18-22.719-22.73v-940.3c0-20.488-8.4102-39.156-21.941-52.688l0.039-0.0391-0.039-0.043c-13.469-13.48-32.129-21.848-52.68-21.848zm196.66 1174c0-12.547 10.168-22.73 22.719-22.73s22.73 10.184 22.73 22.73v160.45c0 33.035-13.508 63.07-35.258 84.82-0.4531 0.4492-0.9219 0.8828-1.3906 1.2891-21.68 20.992-51.133 33.969-83.422 33.969h-719.22c-32.969 0-62.992-13.527-84.77-35.305l-0.043 0.047c-21.75-21.75-35.258-51.785-35.258-84.82v-874.8c0-12.551 10.18-22.723 22.73-22.723h187.76c9.4219 0 17.5 5.7305 20.953 13.902 3.2266 6.2305 6.9883 12.34 11.297 18.289 4.4102 6.0821 9.4414 11.98 15.082 17.621l39.418 39.418c8.8711 8.8828 8.8711 23.27 0 32.141-8.8672 8.8711-23.258 8.8711-32.129 0l-39.43-39.418c-7.2109-7.2227-13.781-14.961-19.699-23.133-3.1289-4.3204-6.082-8.7891-8.832-13.367h-151.7v852.07c0 20.492 8.4102 39.156 21.941 52.684l-0.051 0.047 0.051 0.039c13.469 13.477 32.129 21.852 52.68 21.852h719.22c20.062 0 38.32-7.9883 51.711-20.906l0.9688-1.0312c13.531-13.527 21.941-32.191 21.941-52.684zm-618.99-149.65c-12.547 0-22.727-10.18-22.727-22.73 0-12.551 10.18-22.73 22.727-22.73h369.52c12.547 0 22.727 10.18 22.727 22.73 0 12.551-10.18 22.73-22.727 22.73zm0 201.55c-12.547 0-22.727-10.18-22.727-22.727 0-12.547 10.18-22.726 22.727-22.726h369.52c12.547 0 22.727 10.18 22.727 22.726 0 12.547-10.18 22.727-22.727 22.727h-369.52"/>
</svg>
